{"title":"Oldboy 2013 720p BRRip 720p x264 AAC - PRiSTiNE [P2PDL]","uid":9622872,"size":651516770,"categoryP":"video","categoryS":"hd___movies","magnet":"?xt=urn:btih:6644d85ef481868e691f16983b578d06b826b8f1&amp;dn=Oldboy+2013+720p+BRRip+720p+x264+AAC+-+PRiSTiNE+%5BP2PDL%5D&amp;tr=udp%3A%2F%2Ftracker.openbittorrent.com%3A80&amp;tr=udp%3A%2F%2Fopen.demonii.com%3A1337&amp;tr=udp%3A%2F%2Ftracker.coppersurfer.tk%3A6969&amp;tr=udp%3A%2F%2Fexodus.desync.com%3A6969","seeders":1,"leechers":0,"uploader":"ValidusVyto","files":-1,"time":1392541352,"description":"Oldboy.2013.720p.BRRip.720p.x264.AAC-PRiSTiNE\n\n\nGenre:  Action | Drama | Mystery  &lt;a href=&quot;\nhttp://www.imdb.com/title/tt1321511/&quot; rel=&quot;nofollow&quot; target=&quot;_NEW&quot;&gt;\nhttp://www.imdb.com/title/tt1321511/&lt;/a&gt;\n\n\nFormat                                   : MPEG-4\nFile size                                : 612 MiB\nDuration                                 : 1h 43mn\nOverall bit rate mode                    : Variable\nOverall bit rate                         : 825 Kbps\n\nVideo\nFormat                                   : AVC\nBit rate                                 : 740 Kbps\nWidth                                    : 1 280 pixels\nHeight                                   : 528 pixels\nDisplay aspect ratio                     : 2.40:1\nFrame rate mode                          : Variable\nFrame rate                               : 23.976 fps\nBit depth                                : 8 bits\nStream size                              : 549 MiB (90%)\nWriting library                          : x264 core 142 r2389\n\nAudio\nFormat                                   : AAC\nBit rate mode                            : Variable\nBit rate                                 : 80.0 Kbps\nChannel(s)                               : 2 channels\nChannel positions                        : Front: L R\nSampling rate                            : 48.0 KHz\nStream size                              : 59.4 MiB (10%)\n\n\nSubtitle                                 : Yes (English)\n &lt;a href=&quot;\nhttp://someimage.com/8uShEaz&quot; rel=&quot;nofollow&quot; target=&quot;_NEW&quot;&gt;\nhttp://someimage.com/8uShEaz&lt;/a&gt; &lt;a href=&quot;\nhttp://someimage.com/uXJEEUq&quot; rel=&quot;nofollow&quot; target=&quot;_NEW&quot;&gt;\nhttp://someimage.com/uXJEEUq&lt;/a&gt; &lt;a href=&quot;\nhttp://someimage.com/N4cM4N3&quot; rel=&quot;nofollow&quot; target=&quot;_NEW&quot;&gt;\nhttp://someimage.com/N4cM4N3&lt;/a&gt; &lt;a href=&quot;\nhttp://someimage.com/SQ1t3y5&quot; rel=&quot;nofollow&quot; target=&quot;_NEW&quot;&gt;\nhttp://someimage.com/SQ1t3y5&lt;/a&gt; &lt;a href=&quot;\nhttp://someimage.com/LzC5MFN&quot; rel=&quot;nofollow&quot; target=&quot;_NEW&quot;&gt;\nhttp://someimage.com/LzC5MFN&lt;/a&gt; &lt;a href=&quot;\nhttp://someimage.com/6J4jP03&quot; rel=&quot;nofollow&quot; target=&quot;_NEW&quot;&gt;\nhttp://someimage.com/6J4jP03&lt;/a&gt;\n\n----------------------------------------------------------------------------------------------------\n\n\nRecommend to you to use latest version of VLC player. Install K-Lite Codec Pack or shark007 codecs\nin case of any kind of problem in playback (For non-VLC Media Player users). Alternatively, install\nCore AVC codecs, the fastest decoder that there is coupled with Community Center Codec Pack and play\non Windows Media Player Classic. Check sample to be sure.\nEnjoy!\n\nEncoder Notes:Looking For Early Access To Anything You Can Provide DVDScr, R5, DVDR, BluRay, Direct\nAudio, Music Releases and Seedboxes. We require dedicated servers, so as to do more \nand fast releases of movies.","torrent":{"xt":"urn:btih:6644d85ef481868e691f16983b578d06b826b8f1","amp;dn":"Oldboy+2013+720p+BRRip+720p+x264+AAC+-+PRiSTiNE+%5BP2PDL%5D","amp;tr":["udp%3A%2F%2Ftracker.openbittorrent.com%3A80","udp%3A%2F%2Fopen.demonii.com%3A1337","udp%3A%2F%2Ftracker.coppersurfer.tk%3A6969","udp%3A%2F%2Fexodus.desync.com%3A6969"],"infoHash":"6644d85ef481868e691f16983b578d06b826b8f1","infoHashBuffer":{"type":"Buffer","data":[102,68,216,94,244,129,134,142,105,31,22,152,59,87,141,6,184,38,184,241]},"announce":[],"urlList":[]}}